<svg width="210" height="40" viewBox="0 0 210 40" fill="none" xmlns="http://www.w3.org/2000/svg">
<path d="M47.3752 7.02686C47.3752 8.42228 48.1028 9.22963 49.6577 9.22963C51.2126 9.22963 51.9402 8.42228 51.9402 7.02686C51.9402 5.63145 51.2126 4.854 49.6577 4.854C48.1028 4.854 47.3752 5.63145 47.3752 7.02686Z" fill="#3B7DE6"/>
<mask id="mask0_12_999" style="mask-type:luminance" maskUnits="userSpaceOnUse" x="47" y="4" width="5" height="6">
<path d="M47.3752 7.02686C47.3752 8.42228 48.1028 9.22963 49.6577 9.22963C51.2126 9.22963 51.9402 8.42228 51.9402 7.02686C51.9402 5.63145 51.2126 4.854 49.6577 4.854C48.1028 4.854 47.3752 5.63145 47.3752 7.02686Z" fill="black"/>
</mask>
<g mask="url(#mask0_12_999)">
<path d="M51.614 3.67184L46.2393 5.17755L47.7073 10.4179L53.0821 8.91221L51.614 3.67184Z" fill="#3B7DE6"/>
</g>
<path d="M51.7409 10.9241H47.5646V24.1805H51.7409V10.9241Z" fill="#3B7DE6"/>
<mask id="mask1_12_999" style="mask-type:luminance" maskUnits="userSpaceOnUse" x="47" y="10" width="5" height="15">
<path d="M51.7409 10.9241H47.5646V24.1805H51.7409V10.9241Z" fill="black"/>
</mask>
<g mask="url(#mask1_12_999)">
<path d="M51.4393 9.84514L44.1259 11.894L47.874 25.2732L55.1875 23.2244L51.4393 9.84514Z" fill="#3B7DE6"/>
</g>
<path d="M64.3594 5.771V15.9974L59.625 5.771H54.6414V24.1905H58.7379V14.3827L63.3328 24.1905H68.4261V5.771H64.3594Z" fill="#3B7DE6"/>
<mask id="mask2_12_999" style="mask-type:luminance" maskUnits="userSpaceOnUse" x="54" y="5" width="15" height="20">
<path d="M64.3594 5.771V15.9974L59.625 5.771H54.6414V24.1905H58.7379V14.3827L63.3328 24.1905H68.4261V5.771H64.3594Z" fill="black"/>
</mask>
<g mask="url(#mask2_12_999)">
<path d="M67.4163 2.19351L49.8524 7.11395L55.6386 27.7683L73.2025 22.8478L67.4163 2.19351Z" fill="#3B7DE6"/>
</g>
<path d="M81.3536 5.771V15.9974L76.6192 5.771H71.6355V24.1905H75.7321V14.3827L80.327 24.1905H85.4202V5.771H81.3536Z" fill="#3B7DE6"/>
<mask id="mask3_12_999" style="mask-type:luminance" maskUnits="userSpaceOnUse" x="71" y="5" width="15" height="20">
<path d="M81.3536 5.771V15.9974L76.6192 5.771H71.6355V24.1905H75.7321V14.3827L80.327 24.1905H85.4202V5.771H81.3536Z" fill="black"/>
</mask>
<g mask="url(#mask3_12_999)">
<path d="M84.4179 2.19137L66.8541 7.11182L72.6403 27.7661L90.2042 22.8457L84.4179 2.19137Z" fill="#3B7DE6"/>
</g>
<path d="M92.7561 17.9211V12.0205C92.7561 10.1566 93.6731 9.42898 95.6267 9.42898C97.5803 9.42898 98.4674 10.1566 98.4674 12.0205V17.9211C98.4674 19.785 97.5504 20.5425 95.6267 20.5425C93.703 20.5425 92.7561 19.7949 92.7561 17.9211ZM88.1513 12.0703V17.8912C88.1513 22.2369 90.5434 24.5194 95.6167 24.4995C100.66 24.4995 103.052 22.2469 103.052 17.8912V12.0703C103.052 7.72458 100.66 5.44208 95.6167 5.44208C90.5434 5.47198 88.1513 7.72458 88.1513 12.0703Z" fill="#3B7DE6"/>
<mask id="mask4_12_999" style="mask-type:luminance" maskUnits="userSpaceOnUse" x="88" y="5" width="16" height="20">
<path d="M92.7561 17.9211V12.0205C92.7561 10.1566 93.6731 9.42898 95.6267 9.42898C97.5803 9.42898 98.4674 10.1566 98.4674 12.0205V17.9211C98.4674 19.785 97.5504 20.5425 95.6267 20.5425C93.703 20.5425 92.7561 19.7949 92.7561 17.9211ZM88.1513 12.0703V17.8912C88.1513 22.2369 90.5434 24.5194 95.6167 24.4995C100.66 24.4995 103.052 22.2469 103.052 17.8912V12.0703C103.052 7.72458 100.66 5.44208 95.6167 5.44208C90.5434 5.47198 88.1513 7.72458 88.1513 12.0703Z" fill="black"/>
</mask>
<g mask="url(#mask4_12_999)">
<path d="M101.975 1.56987L83.2019 6.8291L89.2436 28.3952L108.017 23.136L101.975 1.56987Z" fill="#3B7DE6"/>
</g>
<path d="M114.255 5.771L111.415 18.3895L108.544 5.771H103.84L109.242 24.2104H113.588L118.99 5.771H114.255Z" fill="#3B7DE6"/>
<mask id="mask5_12_999" style="mask-type:luminance" maskUnits="userSpaceOnUse" x="103" y="5" width="16" height="20">
<path d="M114.255 5.771L111.415 18.3895L108.544 5.771H103.84L109.242 24.2104H113.588L118.99 5.771H114.255Z" fill="black"/>
</mask>
<g mask="url(#mask5_12_999)">
<path d="M117.892 1.83908L99.0512 7.11713L104.942 28.1458L123.783 22.8677L117.892 1.83908Z" fill="#3B7DE6"/>
</g>
<path d="M125.678 11.2031L127.372 18.25H123.944L125.668 11.2031H125.678ZM123.475 5.74109L118.103 24.1805H122.528L123.146 21.6987H128.22L128.838 24.1805H133.243L127.891 5.74109H123.485H123.475Z" fill="#3B7DE6"/>
<mask id="mask6_12_999" style="mask-type:luminance" maskUnits="userSpaceOnUse" x="118" y="5" width="16" height="20">
<path d="M125.678 11.2031L127.372 18.25H123.944L125.668 11.2031H125.678ZM123.475 5.74109L118.103 24.1805H122.528L123.146 21.6987H128.22L128.838 24.1805H133.243L127.891 5.74109H123.485H123.475Z" fill="black"/>
</mask>
<g mask="url(#mask6_12_999)">
<path d="M132.118 1.81077L113.306 7.08075L119.197 28.1094L138.009 22.8394L132.118 1.81077Z" fill="#3B7DE6"/>
</g>
<path d="M132.197 5.771V9.72799H136.183V24.1905H140.639V9.72799H144.626V5.771H132.197Z" fill="#3B7DE6"/>
<mask id="mask7_12_999" style="mask-type:luminance" maskUnits="userSpaceOnUse" x="132" y="5" width="13" height="20">
<path d="M132.197 5.771V9.72799H136.183V24.1905H140.639V9.72799H144.626V5.771H132.197Z" fill="black"/>
</mask>
<g mask="url(#mask7_12_999)">
<path d="M143.712 2.54671L127.415 7.11224L133.102 27.4115L149.399 22.8459L143.712 2.54671Z" fill="#3B7DE6"/>
</g>
<path d="M156.158 9.64827H158.44C159.507 9.64827 159.915 10.0071 159.915 10.8443V13.0172C159.915 13.9043 159.497 14.2731 158.44 14.2731H156.158V9.64827ZM151.692 5.77101V24.1805H156.148V18.0806H158.66C162.447 18.0806 164.421 16.6353 164.421 13.1169V10.6948C164.391 7.18636 162.417 5.76105 158.66 5.76105H151.692V5.77101Z" fill="#3B7DE6"/>
<mask id="mask8_12_999" style="mask-type:luminance" maskUnits="userSpaceOnUse" x="151" y="5" width="14" height="20">
<path d="M156.158 9.64827H158.44C159.507 9.64827 159.915 10.0071 159.915 10.8443V13.0172C159.915 13.9043 159.497 14.2731 158.44 14.2731H156.158V9.64827ZM151.692 5.77101V24.1805H156.148V18.0806H158.66C162.447 18.0806 164.421 16.6353 164.421 13.1169V10.6948C164.391 7.18636 162.417 5.76105 158.66 5.76105H151.692V5.77101Z" fill="black"/>
</mask>
<g mask="url(#mask8_12_999)">
<path d="M163.497 2.45873L146.912 7.10492L152.62 27.4809L169.205 22.8347L163.497 2.45873Z" fill="#3B7DE6"/>
</g>
<path d="M171.198 11.2031L172.903 18.25H169.474L171.198 11.2031ZM168.996 5.74109L163.623 24.1805H168.049L168.667 21.6987H173.74L174.358 24.1805H178.764L173.411 5.74109H169.006H168.996Z" fill="#3B7DE6"/>
<mask id="mask9_12_999" style="mask-type:luminance" maskUnits="userSpaceOnUse" x="163" y="5" width="16" height="20">
<path d="M171.198 11.2031L172.903 18.25H169.474L171.198 11.2031ZM168.996 5.74109L163.623 24.1805H168.049L168.667 21.6987H173.74L174.358 24.1805H178.764L173.411 5.74109H169.006H168.996Z" fill="black"/>
</mask>
<g mask="url(#mask9_12_999)">
<path d="M177.635 1.81083L158.823 7.08081L164.715 28.1095L183.526 22.8395L177.635 1.81083Z" fill="#3B7DE6"/>
</g>
<path d="M184.704 9.64827H187.096C188.073 9.64827 188.492 9.98716 188.492 10.7945V13.0272C188.492 13.8943 188.073 14.2531 187.096 14.2531H184.704V9.65824V9.64827ZM180.249 5.77101V24.1805H184.704V17.8812H186.099L188.521 24.1805H193.625L190.555 17.353C192.169 16.6852 193.007 15.3196 193.007 13.0072V10.5254C193.007 7.09666 191.053 5.76105 187.266 5.76105H180.249V5.77101Z" fill="#3B7DE6"/>
<mask id="mask10_12_999" style="mask-type:luminance" maskUnits="userSpaceOnUse" x="180" y="5" width="14" height="20">
<path d="M184.704 9.64827H187.096C188.073 9.64827 188.492 9.98716 188.492 10.7945V13.0272C188.492 13.8943 188.073 14.2531 187.096 14.2531H184.704V9.65824V9.64827ZM180.249 5.77101V24.1805H184.704V17.8812H186.099L188.521 24.1805H193.625L190.555 17.353C192.169 16.6852 193.007 15.3196 193.007 13.0072V10.5254C193.007 7.09666 191.053 5.76105 187.266 5.76105H180.249V5.77101Z" fill="black"/>
</mask>
<g mask="url(#mask10_12_999)">
<path d="M192.644 2.29361L175.464 7.10651L181.221 27.6553L198.401 22.8424L192.644 2.29361Z" fill="#3B7DE6"/>
</g>
<path d="M204.26 5.771L200.333 12.6584V5.771H195.907V24.1905H200.333V19.6155L201.868 17.3629L204.738 24.1905H210.001L205.047 12.7082L209.782 5.771H204.26Z" fill="#3B7DE6"/>
<mask id="mask11_12_999" style="mask-type:luminance" maskUnits="userSpaceOnUse" x="195" y="5" width="16" height="20">
<path d="M204.26 5.771L200.333 12.6584V5.771H195.907V24.1905H200.333V19.6155L201.868 17.3629L204.738 24.1905H210.001L205.047 12.7082L209.782 5.771H204.26Z" fill="black"/>
</mask>
<g mask="url(#mask11_12_999)">
<path d="M208.975 2.10851L191.123 7.10962L196.931 27.8407L214.782 22.8396L208.975 2.10851Z" fill="#3B7DE6"/>
</g>
<path d="M47.0862 29.6824V30.2406H48.5813V34.9352H49.259V30.2406H50.7541V29.6824H47.0862Z" fill="black"/>
<mask id="mask12_12_999" style="mask-type:luminance" maskUnits="userSpaceOnUse" x="47" y="29" width="4" height="6">
<path d="M47.0862 29.6824V30.2406H48.5813V34.9352H49.259V30.2406H50.7541V29.6824H47.0862Z" fill="black"/>
</mask>
<g mask="url(#mask12_12_999)">
<path d="M50.4914 28.7245L45.7213 30.0608L47.3534 35.8866L52.1235 34.5503L50.4914 28.7245Z" fill="black"/>
</g>
<path d="M53.4852 29.6824V34.9352H56.4155V34.377H54.1729V32.553H56.1863V32.0247H54.1729V30.2406H56.4155V29.6824H53.4852Z" fill="black"/>
<mask id="mask13_12_999" style="mask-type:luminance" maskUnits="userSpaceOnUse" x="53" y="29" width="4" height="6">
<path d="M53.4852 29.6824V34.9352H56.4155V34.377H54.1729V32.553H56.1863V32.0247H54.1729V30.2406H56.4155V29.6824H53.4852Z" fill="black"/>
</mask>
<g mask="url(#mask13_12_999)">
<path d="M56.2087 28.9152L52.1296 30.0579L53.7052 35.6822L57.7843 34.5395L56.2087 28.9152Z" fill="black"/>
</g>
<path d="M60.3725 29.9715C59.9938 30.2007 59.6948 30.5197 59.4854 30.9183C59.2761 31.327 59.1665 31.7855 59.1665 32.3138C59.1665 32.842 59.2761 33.2906 59.4854 33.6892C59.6948 34.0979 59.9938 34.4069 60.3725 34.6361C60.7513 34.8654 61.1898 34.975 61.6882 34.975C62.3361 34.975 62.8643 34.8155 63.283 34.5066C63.7016 34.1876 63.9906 33.759 64.1501 33.2108H63.4325C63.2929 33.5597 63.0836 33.8387 62.7746 34.0381C62.4756 34.2474 62.1068 34.3471 61.6782 34.3471C61.3294 34.3471 61.0204 34.2673 60.7513 34.0979C60.4822 33.9285 60.2629 33.6992 60.1034 33.3902C59.9439 33.0812 59.8642 32.7224 59.8642 32.3138C59.8642 31.9051 59.9439 31.5363 60.1034 31.2273C60.2629 30.9183 60.4722 30.6791 60.7513 30.5097C61.0304 30.3402 61.3294 30.2605 61.6782 30.2605C62.1168 30.2605 62.4856 30.3602 62.7746 30.5695C63.0737 30.7788 63.2929 31.0479 63.4325 31.3968H64.1501C63.9906 30.8486 63.7016 30.42 63.283 30.101C62.8643 29.792 62.3261 29.6326 61.6882 29.6326C61.1898 29.6326 60.7513 29.7422 60.3725 29.9715Z" fill="black"/>
<mask id="mask14_12_999" style="mask-type:luminance" maskUnits="userSpaceOnUse" x="59" y="29" width="6" height="6">
<path d="M60.3725 29.9715C59.9938 30.2007 59.6948 30.5197 59.4854 30.9183C59.2761 31.327 59.1665 31.7855 59.1665 32.3138C59.1665 32.842 59.2761 33.2906 59.4854 33.6892C59.6948 34.0979 59.9938 34.4069 60.3725 34.6361C60.7513 34.8654 61.1898 34.975 61.6882 34.975C62.3361 34.975 62.8643 34.8155 63.283 34.5066C63.7016 34.1876 63.9906 33.759 64.1501 33.2108H63.4325C63.2929 33.5597 63.0836 33.8387 62.7746 34.0381C62.4756 34.2474 62.1068 34.3471 61.6782 34.3471C61.3294 34.3471 61.0204 34.2673 60.7513 34.0979C60.4822 33.9285 60.2629 33.6992 60.1034 33.3902C59.9439 33.0812 59.8642 32.7224 59.8642 32.3138C59.8642 31.9051 59.9439 31.5363 60.1034 31.2273C60.2629 30.9183 60.4722 30.6791 60.7513 30.5097C61.0304 30.3402 61.3294 30.2605 61.6782 30.2605C62.1168 30.2605 62.4856 30.3602 62.7746 30.5695C63.0737 30.7788 63.2929 31.0479 63.4325 31.3968H64.1501C63.9906 30.8486 63.7016 30.42 63.283 30.101C62.8643 29.792 62.3261 29.6326 61.6882 29.6326C61.1898 29.6326 60.7513 29.7422 60.3725 29.9715Z" fill="black"/>
</mask>
<g mask="url(#mask14_12_999)">
<path d="M63.7978 28.3314L57.78 30.0173L59.5331 36.275L65.5509 34.5891L63.7978 28.3314Z" fill="black"/>
</g>
<path d="M70.5092 29.6824V31.955H67.8181V29.6824H67.1403V34.9352H67.8181V32.5032H70.5092V34.9352H71.197V29.6824H70.5092Z" fill="black"/>
<mask id="mask15_12_999" style="mask-type:luminance" maskUnits="userSpaceOnUse" x="67" y="29" width="5" height="6">
<path d="M70.5092 29.6824V31.955H67.8181V29.6824H67.1403V34.9352H67.8181V32.5032H70.5092V34.9352H71.197V29.6824H70.5092Z" fill="black"/>
</mask>
<g mask="url(#mask15_12_999)">
<path d="M70.9109 28.6266L65.7761 30.0651L67.435 35.9869L72.5698 34.5484L70.9109 28.6266Z" fill="black"/>
</g>
<path d="M77.7853 29.6824V33.8388L75.0344 29.6824H74.3566V34.9352H75.0344V30.7888L77.7853 34.9352H78.4731V29.6824H77.7853Z" fill="black"/>
<mask id="mask16_12_999" style="mask-type:luminance" maskUnits="userSpaceOnUse" x="74" y="29" width="5" height="6">
<path d="M77.7853 29.6824V33.8388L75.0344 29.6824H74.3566V34.9352H75.0344V30.7888L77.7853 34.9352H78.4731V29.6824H77.7853Z" fill="black"/>
</mask>
<g mask="url(#mask16_12_999)">
<path d="M78.174 28.6105L72.9913 30.0624L74.6556 36.0034L79.8384 34.5515L78.174 28.6105Z" fill="black"/>
</g>
<path d="M83.068 34.1079C82.7789 33.9384 82.5497 33.6992 82.3902 33.3902C82.2307 33.0813 82.151 32.7224 82.151 32.3038C82.151 31.8852 82.2307 31.5164 82.3902 31.2074C82.5497 30.8984 82.7789 30.6592 83.068 30.4898C83.357 30.3203 83.6859 30.2406 84.0448 30.2406C84.4036 30.2406 84.7325 30.3203 85.0215 30.4898C85.3106 30.6592 85.5299 30.8885 85.6993 31.2074C85.8588 31.5164 85.9485 31.8852 85.9485 32.3038C85.9485 32.7224 85.8688 33.0713 85.6993 33.3803C85.5398 33.6893 85.3106 33.9285 85.0215 34.0979C84.7325 34.2674 84.4036 34.3571 84.0448 34.3571C83.6859 34.3571 83.357 34.2773 83.068 34.1079ZM82.7191 29.9615C82.3204 30.1908 82.0114 30.5097 81.7822 30.9184C81.5529 31.327 81.4433 31.7855 81.4433 32.3038C81.4433 32.8221 81.5529 33.2806 81.7822 33.6893C82.0114 34.0979 82.3204 34.4169 82.7191 34.6461C83.1178 34.8754 83.5663 34.985 84.0547 34.985C84.5431 34.985 84.9916 34.8754 85.3804 34.6461C85.7691 34.4169 86.0781 34.0979 86.3073 33.6893C86.5266 33.2806 86.6462 32.8121 86.6462 32.3038C86.6462 31.7955 86.5366 31.327 86.3073 30.9184C86.0781 30.5097 85.7691 30.1908 85.3804 29.9615C84.9916 29.7323 84.5431 29.6226 84.0547 29.6226C83.5663 29.6226 83.1178 29.7323 82.7191 29.9615Z" fill="black"/>
<mask id="mask17_12_999" style="mask-type:luminance" maskUnits="userSpaceOnUse" x="81" y="29" width="6" height="6">
<path d="M83.068 34.1079C82.7789 33.9384 82.5497 33.6992 82.3902 33.3902C82.2307 33.0813 82.151 32.7224 82.151 32.3038C82.151 31.8852 82.2307 31.5164 82.3902 31.2074C82.5497 30.8984 82.7789 30.6592 83.068 30.4898C83.357 30.3203 83.6859 30.2406 84.0448 30.2406C84.4036 30.2406 84.7325 30.3203 85.0215 30.4898C85.3106 30.6592 85.5299 30.8885 85.6993 31.2074C85.8588 31.5164 85.9485 31.8852 85.9485 32.3038C85.9485 32.7224 85.8688 33.0713 85.6993 33.3803C85.5398 33.6893 85.3106 33.9285 85.0215 34.0979C84.7325 34.2674 84.4036 34.3571 84.0448 34.3571C83.6859 34.3571 83.357 34.2773 83.068 34.1079ZM82.7191 29.9615C82.3204 30.1908 82.0114 30.5097 81.7822 30.9184C81.5529 31.327 81.4433 31.7855 81.4433 32.3038C81.4433 32.8221 81.5529 33.2806 81.7822 33.6893C82.0114 34.0979 82.3204 34.4169 82.7191 34.6461C83.1178 34.8754 83.5663 34.985 84.0547 34.985C84.5431 34.985 84.9916 34.8754 85.3804 34.6461C85.7691 34.4169 86.0781 34.0979 86.3073 33.6893C86.5266 33.2806 86.6462 32.8121 86.6462 32.3038C86.6462 31.7955 86.5366 31.327 86.3073 30.9184C86.0781 30.5097 85.7691 30.1908 85.3804 29.9615C84.9916 29.7323 84.5431 29.6226 84.0547 29.6226C83.5663 29.6226 83.1178 29.7323 82.7191 29.9615Z" fill="black"/>
</mask>
<g mask="url(#mask17_12_999)">
<path d="M86.2572 28.26L80.0475 29.9996L81.8221 36.3341L88.0318 34.5945L86.2572 28.26Z" fill="black"/>
</g>
<path d="M89.6264 29.6824V34.9352H92.188V34.4069H90.3042V29.6824H89.6264Z" fill="black"/>
<mask id="mask18_12_999" style="mask-type:luminance" maskUnits="userSpaceOnUse" x="89" y="29" width="4" height="6">
<path d="M89.6264 29.6824V34.9352H92.188V34.4069H90.3042V29.6824H89.6264Z" fill="black"/>
</mask>
<g mask="url(#mask18_12_999)">
<path d="M91.9941 29.0114L88.2509 30.06L89.7997 35.5883L93.5428 34.5397L91.9941 29.0114Z" fill="black"/>
</g>
<path d="M96.3942 34.1079C96.1051 33.9384 95.8759 33.6992 95.7164 33.3902C95.5569 33.0813 95.4672 32.7224 95.4672 32.3038C95.4672 31.8852 95.5469 31.5164 95.7164 31.2074C95.8759 30.8984 96.1051 30.6592 96.3942 30.4898C96.6832 30.3203 97.0121 30.2406 97.371 30.2406C97.7298 30.2406 98.0587 30.3203 98.3378 30.4898C98.6268 30.6592 98.8461 30.8885 99.0155 31.2074C99.175 31.5164 99.2647 31.8852 99.2647 32.3038C99.2647 32.7224 99.185 33.0713 99.0155 33.3803C98.8561 33.6893 98.6268 33.9285 98.3378 34.0979C98.0487 34.2674 97.7298 34.3571 97.371 34.3571C97.0121 34.3571 96.6732 34.2773 96.3942 34.1079ZM96.0353 29.9615C95.6367 30.1908 95.3277 30.5097 95.0984 30.9184C94.8692 31.327 94.7595 31.7855 94.7595 32.3038C94.7595 32.8221 94.8692 33.2806 95.0984 33.6893C95.3277 34.0979 95.6367 34.4169 96.0353 34.6461C96.434 34.8754 96.8726 34.985 97.371 34.985C97.8693 34.985 98.2979 34.8754 98.6966 34.6461C99.0953 34.4169 99.4043 34.0979 99.6236 33.6893C99.8528 33.2806 99.9624 32.8121 99.9624 32.3038C99.9624 31.7955 99.8528 31.327 99.6236 30.9184C99.3943 30.5097 99.0853 30.1908 98.6966 29.9615C98.3079 29.7323 97.8594 29.6226 97.371 29.6226C96.8826 29.6226 96.434 29.7323 96.0353 29.9615Z" fill="black"/>
<mask id="mask19_12_999" style="mask-type:luminance" maskUnits="userSpaceOnUse" x="94" y="29" width="6" height="6">
<path d="M96.3942 34.1079C96.1051 33.9384 95.8759 33.6992 95.7164 33.3902C95.5569 33.0813 95.4672 32.7224 95.4672 32.3038C95.4672 31.8852 95.5469 31.5164 95.7164 31.2074C95.8759 30.8984 96.1051 30.6592 96.3942 30.4898C96.6832 30.3203 97.0121 30.2406 97.371 30.2406C97.7298 30.2406 98.0587 30.3203 98.3378 30.4898C98.6268 30.6592 98.8461 30.8885 99.0155 31.2074C99.175 31.5164 99.2647 31.8852 99.2647 32.3038C99.2647 32.7224 99.185 33.0713 99.0155 33.3803C98.8561 33.6893 98.6268 33.9285 98.3378 34.0979C98.0487 34.2674 97.7298 34.3571 97.371 34.3571C97.0121 34.3571 96.6732 34.2773 96.3942 34.1079ZM96.0353 29.9615C95.6367 30.1908 95.3277 30.5097 95.0984 30.9184C94.8692 31.327 94.7595 31.7855 94.7595 32.3038C94.7595 32.8221 94.8692 33.2806 95.0984 33.6893C95.3277 34.0979 95.6367 34.4169 96.0353 34.6461C96.434 34.8754 96.8726 34.985 97.371 34.985C97.8693 34.985 98.2979 34.8754 98.6966 34.6461C99.0953 34.4169 99.4043 34.0979 99.6236 33.6893C99.8528 33.2806 99.9624 32.8121 99.9624 32.3038C99.9624 31.7955 99.8528 31.327 99.6236 30.9184C99.3943 30.5097 99.0853 30.1908 98.6966 29.9615C98.3079 29.7323 97.8594 29.6226 97.371 29.6226C96.8826 29.6226 96.434 29.7323 96.0353 29.9615Z" fill="black"/>
</mask>
<g mask="url(#mask19_12_999)">
<path d="M99.5877 28.2633L93.3684 30.0056L95.143 36.3401L101.362 34.5978L99.5877 28.2633Z" fill="black"/>
</g>
<path d="M103.999 29.9715C103.61 30.2007 103.301 30.5197 103.082 30.9184C102.863 31.327 102.753 31.7855 102.753 32.3138C102.753 32.842 102.863 33.3005 103.082 33.6992C103.301 34.0979 103.61 34.4169 103.999 34.6461C104.388 34.8754 104.836 34.985 105.355 34.985C105.823 34.985 106.242 34.8853 106.601 34.686C106.969 34.4866 107.258 34.2175 107.478 33.8786C107.697 33.5397 107.827 33.161 107.866 32.7424V32.1144H105.205V32.6228H107.288C107.258 32.9816 107.149 33.2906 106.979 33.5597C106.81 33.8288 106.581 34.0281 106.312 34.1677C106.042 34.3072 105.743 34.377 105.424 34.377C105.046 34.377 104.707 34.2973 104.418 34.1278C104.129 33.9584 103.9 33.7192 103.73 33.4102C103.571 33.1012 103.481 32.7324 103.481 32.3038C103.481 31.8752 103.561 31.5264 103.72 31.2174C103.88 30.9084 104.109 30.6692 104.398 30.5097C104.677 30.3403 105.006 30.2605 105.365 30.2605C105.763 30.2605 106.112 30.3602 106.401 30.5496C106.7 30.7489 106.9 30.9981 107.029 31.3171H107.747C107.597 30.7988 107.318 30.3801 106.9 30.0811C106.481 29.7821 105.963 29.6226 105.355 29.6226C104.846 29.6226 104.398 29.7323 104.009 29.9615" fill="black"/>
<mask id="mask20_12_999" style="mask-type:luminance" maskUnits="userSpaceOnUse" x="102" y="29" width="6" height="6">
<path d="M103.999 29.9715C103.61 30.2007 103.301 30.5197 103.082 30.9184C102.863 31.327 102.753 31.7855 102.753 32.3138C102.753 32.842 102.863 33.3005 103.082 33.6992C103.301 34.0979 103.61 34.4169 103.999 34.6461C104.388 34.8754 104.836 34.985 105.355 34.985C105.823 34.985 106.242 34.8853 106.601 34.686C106.969 34.4866 107.258 34.2175 107.478 33.8786C107.697 33.5397 107.827 33.161 107.866 32.7424V32.1144H105.205V32.6228H107.288C107.258 32.9816 107.149 33.2906 106.979 33.5597C106.81 33.8288 106.581 34.0281 106.312 34.1677C106.042 34.3072 105.743 34.377 105.424 34.377C105.046 34.377 104.707 34.2973 104.418 34.1278C104.129 33.9584 103.9 33.7192 103.73 33.4102C103.571 33.1012 103.481 32.7324 103.481 32.3038C103.481 31.8752 103.561 31.5264 103.72 31.2174C103.88 30.9084 104.109 30.6692 104.398 30.5097C104.677 30.3403 105.006 30.2605 105.365 30.2605C105.763 30.2605 106.112 30.3602 106.401 30.5496C106.7 30.7489 106.9 30.9981 107.029 31.3171H107.747C107.597 30.7988 107.318 30.3801 106.9 30.0811C106.481 29.7821 105.963 29.6226 105.355 29.6226C104.846 29.6226 104.398 29.7323 104.009 29.9615" fill="black"/>
</mask>
<g mask="url(#mask20_12_999)">
<path d="M107.496 28.3029L101.373 30.0184L103.134 36.3049L109.257 34.5895L107.496 28.3029Z" fill="black"/>
</g>
<path d="M113.827 29.6824L112.531 32.2241L111.235 29.6824H110.438L112.182 32.9417V34.9352H112.87V32.9417L114.604 29.6824H113.827Z" fill="black"/>
<mask id="mask21_12_999" style="mask-type:luminance" maskUnits="userSpaceOnUse" x="110" y="29" width="5" height="6">
<path d="M113.827 29.6824L112.531 32.2241L111.235 29.6824H110.438L112.182 32.9417V34.9352H112.87V32.9417L114.604 29.6824H113.827Z" fill="black"/>
</mask>
<g mask="url(#mask21_12_999)">
<path d="M114.308 28.5894L109.078 30.0547L110.745 36.0053L115.975 34.54L114.308 28.5894Z" fill="black"/>
</g>
<path d="M121.262 29.6824V34.9352H121.95V32.5829H123.914V32.0546H121.95V30.2406H124.263V29.6824H121.262Z" fill="black"/>
<mask id="mask22_12_999" style="mask-type:luminance" maskUnits="userSpaceOnUse" x="121" y="29" width="4" height="6">
<path d="M121.262 29.6824V34.9352H121.95V32.5829H123.914V32.0546H121.95V30.2406H124.263V29.6824H121.262Z" fill="black"/>
</mask>
<g mask="url(#mask22_12_999)">
<path d="M124.05 28.8931L119.903 30.0546L121.484 35.6981L125.631 34.5366L124.05 28.8931Z" fill="black"/>
</g>
<path d="M128.578 34.1079C128.289 33.9384 128.07 33.6992 127.901 33.3902C127.741 33.0813 127.661 32.7224 127.661 32.3038C127.661 31.8852 127.741 31.5164 127.901 31.2074C128.06 30.8984 128.289 30.6592 128.578 30.4898C128.867 30.3203 129.196 30.2406 129.555 30.2406C129.914 30.2406 130.243 30.3203 130.532 30.4898C130.821 30.6592 131.04 30.8885 131.21 31.2074C131.369 31.5164 131.449 31.8852 131.449 32.3038C131.449 32.7224 131.369 33.0713 131.21 33.3803C131.05 33.6893 130.821 33.9285 130.532 34.0979C130.243 34.2674 129.924 34.3571 129.555 34.3571C129.186 34.3571 128.867 34.2773 128.578 34.1079ZM128.23 29.9615C127.831 30.1908 127.522 30.5097 127.293 30.9184C127.063 31.327 126.954 31.7855 126.954 32.3038C126.954 32.8221 127.063 33.2806 127.293 33.6893C127.522 34.0979 127.831 34.4169 128.23 34.6461C128.628 34.8754 129.077 34.985 129.565 34.985C130.054 34.985 130.502 34.8754 130.891 34.6461C131.28 34.4169 131.589 34.0979 131.818 33.6893C132.047 33.2806 132.157 32.8121 132.157 32.3038C132.157 31.7955 132.047 31.327 131.818 30.9184C131.589 30.5097 131.28 30.1908 130.891 29.9615C130.502 29.7323 130.054 29.6226 129.565 29.6226C129.077 29.6226 128.628 29.7323 128.23 29.9615Z" fill="black"/>
<mask id="mask23_12_999" style="mask-type:luminance" maskUnits="userSpaceOnUse" x="126" y="29" width="7" height="6">
<path d="M128.578 34.1079C128.289 33.9384 128.07 33.6992 127.901 33.3902C127.741 33.0813 127.661 32.7224 127.661 32.3038C127.661 31.8852 127.741 31.5164 127.901 31.2074C128.06 30.8984 128.289 30.6592 128.578 30.4898C128.867 30.3203 129.196 30.2406 129.555 30.2406C129.914 30.2406 130.243 30.3203 130.532 30.4898C130.821 30.6592 131.04 30.8885 131.21 31.2074C131.369 31.5164 131.449 31.8852 131.449 32.3038C131.449 32.7224 131.369 33.0713 131.21 33.3803C131.05 33.6893 130.821 33.9285 130.532 34.0979C130.243 34.2674 129.924 34.3571 129.555 34.3571C129.186 34.3571 128.867 34.2773 128.578 34.1079ZM128.23 29.9615C127.831 30.1908 127.522 30.5097 127.293 30.9184C127.063 31.327 126.954 31.7855 126.954 32.3038C126.954 32.8221 127.063 33.2806 127.293 33.6893C127.522 34.0979 127.831 34.4169 128.23 34.6461C128.628 34.8754 129.077 34.985 129.565 34.985C130.054 34.985 130.502 34.8754 130.891 34.6461C131.28 34.4169 131.589 34.0979 131.818 33.6893C132.047 33.2806 132.157 32.8121 132.157 32.3038C132.157 31.7955 132.047 31.327 131.818 30.9184C131.589 30.5097 131.28 30.1908 130.891 29.9615C130.502 29.7323 130.054 29.6226 129.565 29.6226C129.077 29.6226 128.628 29.7323 128.23 29.9615Z" fill="black"/>
</mask>
<g mask="url(#mask23_12_999)">
<path d="M131.775 28.2601L125.555 30.0024L127.33 36.3369L133.549 34.5946L131.775 28.2601Z" fill="black"/>
</g>
<path d="M135.815 30.2705H136.811C137.589 30.2705 137.978 30.6094 137.978 31.2872C137.978 31.9649 137.589 32.2939 136.811 32.2939H135.815V30.2705ZM135.127 29.6824V34.9352H135.815V32.7922H136.562L137.948 34.9352H138.715L137.27 32.7723C137.728 32.7125 138.077 32.543 138.316 32.2839C138.556 32.0247 138.675 31.6759 138.675 31.2573C138.675 30.7888 138.526 30.41 138.227 30.121C137.928 29.8319 137.479 29.6924 136.871 29.6924H135.127V29.6824Z" fill="black"/>
<mask id="mask24_12_999" style="mask-type:luminance" maskUnits="userSpaceOnUse" x="135" y="29" width="4" height="6">
<path d="M135.815 30.2705H136.811C137.589 30.2705 137.978 30.6094 137.978 31.2872C137.978 31.9649 137.589 32.2939 136.811 32.2939H135.815V30.2705ZM135.127 29.6824V34.9352H135.815V32.7922H136.562L137.948 34.9352H138.715L137.27 32.7723C137.728 32.7125 138.077 32.543 138.316 32.2839C138.556 32.0247 138.675 31.6759 138.675 31.2573C138.675 30.7888 138.526 30.41 138.227 30.121C137.928 29.8319 137.479 29.6924 136.871 29.6924H135.127V29.6824Z" fill="black"/>
</mask>
<g mask="url(#mask24_12_999)">
<path d="M138.454 28.7404L133.77 30.0526L135.394 35.8496L140.078 34.5375L138.454 28.7404Z" fill="black"/>
</g>
<path d="M146.171 29.6824H145.483V34.9352H146.171V29.6824Z" fill="black"/>
<mask id="mask25_12_999" style="mask-type:luminance" maskUnits="userSpaceOnUse" x="145" y="29" width="2" height="6">
<path d="M146.171 29.6824H145.483V34.9352H146.171V29.6824Z" fill="black"/>
</mask>
<g mask="url(#mask25_12_999)">
<path d="M146.117 29.5018L144.121 30.061L145.535 35.1094L147.532 34.5502L146.117 29.5018Z" fill="black"/>
</g>
<path d="M152.749 29.6824V33.8388L150.008 29.6824H149.32V34.9352H150.008V30.7888L152.749 34.9352H153.437V29.6824H152.749Z" fill="black"/>
<mask id="mask26_12_999" style="mask-type:luminance" maskUnits="userSpaceOnUse" x="149" y="29" width="5" height="6">
<path d="M152.749 29.6824V33.8388L150.008 29.6824H149.32V34.9352H150.008V30.7888L152.749 34.9352H153.437V29.6824H152.749Z" fill="black"/>
</mask>
<g mask="url(#mask26_12_999)">
<path d="M153.139 28.5991L147.956 30.0511L149.621 35.9921L154.803 34.5402L153.139 28.5991Z" fill="black"/>
</g>
<path d="M160.025 29.6824V33.8388L157.274 29.6824H156.586V34.9352H157.274V30.7888L160.025 34.9352H160.703V29.6824H160.025Z" fill="black"/>
<mask id="mask27_12_999" style="mask-type:luminance" maskUnits="userSpaceOnUse" x="156" y="29" width="5" height="6">
<path d="M160.025 29.6824V33.8388L157.274 29.6824H156.586V34.9352H157.274V30.7888L160.025 34.9352H160.703V29.6824H160.025Z" fill="black"/>
</mask>
<g mask="url(#mask27_12_999)">
<path d="M160.405 28.6025L155.222 30.0544L156.887 35.9954L162.069 34.5435L160.405 28.6025Z" fill="black"/>
</g>
<path d="M165.308 34.1079C165.019 33.9384 164.799 33.6992 164.63 33.3902C164.47 33.0813 164.391 32.7224 164.391 32.3038C164.391 31.8852 164.47 31.5164 164.63 31.2074C164.789 30.8984 165.019 30.6592 165.308 30.4898C165.597 30.3203 165.926 30.2406 166.285 30.2406C166.643 30.2406 166.972 30.3203 167.261 30.4898C167.55 30.6592 167.77 30.8885 167.939 31.2074C168.099 31.5164 168.188 31.8852 168.188 32.3038C168.188 32.7224 168.109 33.0713 167.939 33.3803C167.78 33.6893 167.55 33.9285 167.261 34.0979C166.972 34.2674 166.643 34.3571 166.285 34.3571C165.926 34.3571 165.587 34.2773 165.308 34.1079ZM164.959 29.9615C164.56 30.1908 164.251 30.5097 164.022 30.9184C163.793 31.327 163.683 31.7855 163.683 32.3038C163.683 32.8221 163.793 33.2806 164.022 33.6893C164.251 34.0979 164.56 34.4169 164.959 34.6461C165.358 34.8754 165.796 34.985 166.294 34.985C166.793 34.985 167.221 34.8754 167.62 34.6461C168.009 34.4169 168.318 34.0979 168.547 33.6893C168.776 33.2806 168.886 32.8121 168.886 32.3038C168.886 31.7955 168.776 31.327 168.547 30.9184C168.318 30.5097 168.009 30.1908 167.62 29.9615C167.231 29.7323 166.783 29.6226 166.294 29.6226C165.806 29.6226 165.358 29.7323 164.959 29.9615Z" fill="black"/>
<mask id="mask28_12_999" style="mask-type:luminance" maskUnits="userSpaceOnUse" x="163" y="29" width="6" height="6">
<path d="M165.308 34.1079C165.019 33.9384 164.799 33.6992 164.63 33.3902C164.47 33.0813 164.391 32.7224 164.391 32.3038C164.391 31.8852 164.47 31.5164 164.63 31.2074C164.789 30.8984 165.019 30.6592 165.308 30.4898C165.597 30.3203 165.926 30.2406 166.285 30.2406C166.643 30.2406 166.972 30.3203 167.261 30.4898C167.55 30.6592 167.77 30.8885 167.939 31.2074C168.099 31.5164 168.188 31.8852 168.188 32.3038C168.188 32.7224 168.109 33.0713 167.939 33.3803C167.78 33.6893 167.55 33.9285 167.261 34.0979C166.972 34.2674 166.643 34.3571 166.285 34.3571C165.926 34.3571 165.587 34.2773 165.308 34.1079ZM164.959 29.9615C164.56 30.1908 164.251 30.5097 164.022 30.9184C163.793 31.327 163.683 31.7855 163.683 32.3038C163.683 32.8221 163.793 33.2806 164.022 33.6893C164.251 34.0979 164.56 34.4169 164.959 34.6461C165.358 34.8754 165.796 34.985 166.294 34.985C166.793 34.985 167.221 34.8754 167.62 34.6461C168.009 34.4169 168.318 34.0979 168.547 33.6893C168.776 33.2806 168.886 32.8121 168.886 32.3038C168.886 31.7955 168.776 31.327 168.547 30.9184C168.318 30.5097 168.009 30.1908 167.62 29.9615C167.231 29.7323 166.783 29.6226 166.294 29.6226C165.806 29.6226 165.358 29.7323 164.959 29.9615Z" fill="black"/>
</mask>
<g mask="url(#mask28_12_999)">
<path d="M168.508 28.2594L162.288 30.0017L164.063 36.3362L170.282 34.5939L168.508 28.2594Z" fill="black"/>
</g>
<path d="M175.454 29.6824L173.82 34.1777L172.205 29.6824H171.458L173.391 34.9352H174.258L176.202 29.6824H175.454Z" fill="black"/>
<mask id="mask29_12_999" style="mask-type:luminance" maskUnits="userSpaceOnUse" x="171" y="29" width="6" height="6">
<path d="M175.454 29.6824L173.82 34.1777L172.205 29.6824H171.458L173.391 34.9352H174.258L176.202 29.6824H175.454Z" fill="black"/>
</mask>
<g mask="url(#mask29_12_999)">
<path d="M175.857 28.4467L170.089 30.0626L171.799 36.1668L177.567 34.5508L175.857 28.4467Z" fill="black"/>
</g>
<path d="M180.887 30.5396L181.853 33.1909H179.91L180.877 30.5396H180.887ZM180.508 29.7821L178.544 34.9352H179.282L179.72 33.7192H182.053L182.491 34.9352H183.229L181.275 29.7821H180.498H180.508Z" fill="black"/>
<mask id="mask30_12_999" style="mask-type:luminance" maskUnits="userSpaceOnUse" x="178" y="29" width="6" height="6">
<path d="M180.887 30.5396L181.853 33.1909H179.91L180.877 30.5396H180.887ZM180.508 29.7821L178.544 34.9352H179.282L179.72 33.7192H182.053L182.491 34.9352H183.229L181.275 29.7821H180.498H180.508Z" fill="black"/>
</mask>
<g mask="url(#mask30_12_999)">
<path d="M182.89 28.5535L177.208 30.1452L178.886 36.1342L184.568 34.5424L182.89 28.5535Z" fill="black"/>
</g>
<path d="M185.551 29.6824V30.2406H187.046V34.9352H187.734V30.2406H189.229V29.6824H185.551Z" fill="black"/>
<mask id="mask31_12_999" style="mask-type:luminance" maskUnits="userSpaceOnUse" x="185" y="29" width="5" height="6">
<path d="M185.551 29.6824V30.2406H187.046V34.9352H187.734V30.2406H189.229V29.6824H185.551Z" fill="black"/>
</mask>
<g mask="url(#mask31_12_999)">
<path d="M188.956 28.7194L184.186 30.0557L185.818 35.8816L190.588 34.5452L188.956 28.7194Z" fill="black"/>
</g>
<path d="M193.405 34.1079C193.116 33.9384 192.897 33.6992 192.728 33.3902C192.568 33.0813 192.478 32.7224 192.478 32.3038C192.478 31.8852 192.558 31.5164 192.728 31.2074C192.897 30.8984 193.116 30.6592 193.405 30.4898C193.694 30.3203 194.023 30.2406 194.382 30.2406C194.741 30.2406 195.07 30.3203 195.349 30.4898C195.638 30.6592 195.867 30.8885 196.027 31.2074C196.186 31.5164 196.276 31.8852 196.276 32.3038C196.276 32.7224 196.196 33.0713 196.027 33.3803C195.867 33.6893 195.638 33.9285 195.349 34.0979C195.06 34.2674 194.741 34.3571 194.382 34.3571C194.023 34.3571 193.684 34.2773 193.405 34.1079ZM193.057 29.9615C192.658 30.1908 192.349 30.5097 192.12 30.9184C191.89 31.327 191.781 31.7855 191.781 32.3038C191.781 32.8221 191.89 33.2806 192.12 33.6893C192.349 34.0979 192.658 34.4169 193.057 34.6461C193.455 34.8754 193.894 34.985 194.392 34.985C194.891 34.985 195.319 34.8754 195.718 34.6461C196.107 34.4169 196.416 34.0979 196.645 33.6893C196.874 33.2806 196.984 32.8121 196.984 32.3038C196.984 31.7955 196.874 31.327 196.645 30.9184C196.416 30.5097 196.107 30.1908 195.718 29.9615C195.319 29.7323 194.881 29.6226 194.392 29.6226C193.904 29.6226 193.455 29.7323 193.057 29.9615Z" fill="black"/>
<mask id="mask32_12_999" style="mask-type:luminance" maskUnits="userSpaceOnUse" x="191" y="29" width="6" height="6">
<path d="M193.405 34.1079C193.116 33.9384 192.897 33.6992 192.728 33.3902C192.568 33.0813 192.478 32.7224 192.478 32.3038C192.478 31.8852 192.558 31.5164 192.728 31.2074C192.897 30.8984 193.116 30.6592 193.405 30.4898C193.694 30.3203 194.023 30.2406 194.382 30.2406C194.741 30.2406 195.07 30.3203 195.349 30.4898C195.638 30.6592 195.867 30.8885 196.027 31.2074C196.186 31.5164 196.276 31.8852 196.276 32.3038C196.276 32.7224 196.196 33.0713 196.027 33.3803C195.867 33.6893 195.638 33.9285 195.349 34.0979C195.06 34.2674 194.741 34.3571 194.382 34.3571C194.023 34.3571 193.684 34.2773 193.405 34.1079ZM193.057 29.9615C192.658 30.1908 192.349 30.5097 192.12 30.9184C191.89 31.327 191.781 31.7855 191.781 32.3038C191.781 32.8221 191.89 33.2806 192.12 33.6893C192.349 34.0979 192.658 34.4169 193.057 34.6461C193.455 34.8754 193.894 34.985 194.392 34.985C194.891 34.985 195.319 34.8754 195.718 34.6461C196.107 34.4169 196.416 34.0979 196.645 33.6893C196.874 33.2806 196.984 32.8121 196.984 32.3038C196.984 31.7955 196.874 31.327 196.645 30.9184C196.416 30.5097 196.107 30.1908 195.718 29.9615C195.319 29.7323 194.881 29.6226 194.392 29.6226C193.904 29.6226 193.455 29.7323 193.057 29.9615Z" fill="black"/>
</mask>
<g mask="url(#mask32_12_999)">
<path d="M196.6 28.2549L190.381 29.9972L192.156 36.3317L198.375 34.5894L196.6 28.2549Z" fill="black"/>
</g>
<path d="M200.642 30.2705H201.638C202.416 30.2705 202.805 30.6094 202.805 31.2872C202.805 31.9649 202.416 32.2939 201.638 32.2939H200.642V30.2705ZM199.964 29.6824V34.9352H200.652V32.7922H201.399L202.785 34.9352H203.562L202.117 32.7723C202.575 32.7125 202.924 32.543 203.163 32.2839C203.403 32.0247 203.522 31.6759 203.522 31.2573C203.522 30.7888 203.373 30.41 203.074 30.121C202.775 29.8319 202.326 29.6924 201.718 29.6924H199.974L199.964 29.6824Z" fill="black"/>
<mask id="mask33_12_999" style="mask-type:luminance" maskUnits="userSpaceOnUse" x="199" y="29" width="5" height="6">
<path d="M200.642 30.2705H201.638C202.416 30.2705 202.805 30.6094 202.805 31.2872C202.805 31.9649 202.416 32.2939 201.638 32.2939H200.642V30.2705ZM199.964 29.6824V34.9352H200.652V32.7922H201.399L202.785 34.9352H203.562L202.117 32.7723C202.575 32.7125 202.924 32.543 203.163 32.2839C203.403 32.0247 203.522 31.6759 203.522 31.2573C203.522 30.7888 203.373 30.41 203.074 30.121C202.775 29.8319 202.326 29.6924 201.718 29.6924H199.974L199.964 29.6824Z" fill="black"/>
</mask>
<g mask="url(#mask33_12_999)">
<path d="M203.28 28.7352L198.596 30.0474L200.22 35.8444L204.904 34.5323L203.28 28.7352Z" fill="black"/>
</g>
<path d="M206.981 29.7921C206.732 29.9017 206.542 30.0711 206.413 30.2705C206.283 30.4798 206.213 30.719 206.213 30.9981C206.213 31.3171 206.283 31.5662 206.433 31.7656C206.572 31.955 206.752 32.1045 206.951 32.2041C207.15 32.3038 207.429 32.4035 207.758 32.5131C208.047 32.6028 208.267 32.6826 208.436 32.7623C208.595 32.842 208.735 32.9417 208.855 33.0813C208.964 33.2108 209.024 33.3902 209.024 33.5996C209.024 33.8487 208.944 34.0481 208.785 34.2076C208.625 34.367 208.396 34.4468 208.097 34.4468C207.868 34.4468 207.669 34.3969 207.509 34.3072C207.34 34.2175 207.22 34.0979 207.13 33.9584C207.041 33.8188 206.991 33.6693 206.981 33.5198H206.253C206.283 33.7989 206.373 34.058 206.532 34.2773C206.692 34.4966 206.911 34.666 207.18 34.7956C207.449 34.9252 207.768 34.985 208.117 34.985C208.466 34.985 208.785 34.9152 209.024 34.7857C209.273 34.6561 209.453 34.4767 209.572 34.2674C209.692 34.058 209.752 33.8188 209.752 33.5796C209.752 33.2407 209.682 32.9816 209.532 32.7723C209.383 32.5729 209.213 32.4234 209.004 32.3237C208.795 32.2241 208.526 32.1244 208.187 32.0148C207.908 31.9251 207.688 31.8453 207.529 31.7755C207.37 31.7058 207.23 31.6061 207.13 31.4765C207.021 31.347 206.971 31.1875 206.971 30.9782C206.971 30.719 207.051 30.5197 207.22 30.3801C207.389 30.2406 207.609 30.1708 207.878 30.1708C208.177 30.1708 208.416 30.2506 208.595 30.41C208.775 30.5695 208.875 30.7489 208.914 30.9582H209.652C209.602 30.5695 209.423 30.2506 209.114 30.0014C208.805 29.7522 208.396 29.6226 207.878 29.6226C207.539 29.6226 207.25 29.6824 207.001 29.7921" fill="black"/>
<mask id="mask34_12_999" style="mask-type:luminance" maskUnits="userSpaceOnUse" x="206" y="29" width="4" height="6">
<path d="M206.981 29.7921C206.732 29.9017 206.542 30.0711 206.413 30.2705C206.283 30.4798 206.213 30.719 206.213 30.9981C206.213 31.3171 206.283 31.5662 206.433 31.7656C206.572 31.955 206.752 32.1045 206.951 32.2041C207.15 32.3038 207.429 32.4035 207.758 32.5131C208.047 32.6028 208.267 32.6826 208.436 32.7623C208.595 32.842 208.735 32.9417 208.855 33.0813C208.964 33.2108 209.024 33.3902 209.024 33.5996C209.024 33.8487 208.944 34.0481 208.785 34.2076C208.625 34.367 208.396 34.4468 208.097 34.4468C207.868 34.4468 207.669 34.3969 207.509 34.3072C207.34 34.2175 207.22 34.0979 207.13 33.9584C207.041 33.8188 206.991 33.6693 206.981 33.5198H206.253C206.283 33.7989 206.373 34.058 206.532 34.2773C206.692 34.4966 206.911 34.666 207.18 34.7956C207.449 34.9252 207.768 34.985 208.117 34.985C208.466 34.985 208.785 34.9152 209.024 34.7857C209.273 34.6561 209.453 34.4767 209.572 34.2674C209.692 34.058 209.752 33.8188 209.752 33.5796C209.752 33.2407 209.682 32.9816 209.532 32.7723C209.383 32.5729 209.213 32.4234 209.004 32.3237C208.795 32.2241 208.526 32.1244 208.187 32.0148C207.908 31.9251 207.688 31.8453 207.529 31.7755C207.37 31.7058 207.23 31.6061 207.13 31.4765C207.021 31.347 206.971 31.1875 206.971 30.9782C206.971 30.719 207.051 30.5197 207.22 30.3801C207.389 30.2406 207.609 30.1708 207.878 30.1708C208.177 30.1708 208.416 30.2506 208.595 30.41C208.775 30.5695 208.875 30.7489 208.914 30.9582H209.652C209.602 30.5695 209.423 30.2506 209.114 30.0014C208.805 29.7522 208.396 29.6226 207.878 29.6226C207.539 29.6226 207.25 29.6824 207.001 29.7921" fill="black"/>
</mask>
<g mask="url(#mask34_12_999)">
<path d="M209.484 28.6939L204.82 30.0007L206.471 35.8937L211.135 34.5869L209.484 28.6939Z" fill="black"/>
</g>
<path d="M7.91489 0.199345C7.40656 0.219279 6.91816 0.39869 6.42977 0.538232L6.36996 0.588068C2.57244 1.82401 -0.128683 5.89064 0.0208263 10.0271C0.0606953 16.8646 -0.0589117 23.7021 0.0407608 30.5397C0.160368 35.4535 4.33665 39.7494 9.04119 39.8391C12.6394 39.859 16.2475 39.8491 19.8457 39.8491C22.786 39.8491 25.7264 39.8491 28.6667 39.8491C31.7964 39.9288 34.9062 38.2244 36.6305 35.4934C37.8067 33.7192 38.2851 31.5463 38.2751 29.4134C38.2751 22.9546 38.2951 16.4858 38.2552 10.037C38.2552 7.61498 37.4678 5.16304 35.883 3.35896C34.1587 1.28578 31.5672 0.0299018 28.9259 0C25.7862 0 22.6465 0 19.5068 0C16.3671 0 13.2274 0 10.0877 0C10.0479 0 9.99804 0 9.95817 0C9.27043 0 8.59266 0.0697707 7.91489 0.209312" fill="#3B7DE6"/>
<mask id="mask35_12_999" style="mask-type:luminance" maskUnits="userSpaceOnUse" x="0" y="0" width="39" height="40">
<path d="M7.91489 0.199345C7.40656 0.219279 6.91816 0.39869 6.42977 0.538232L6.36996 0.588068C2.57244 1.82401 -0.128683 5.89064 0.0208263 10.0271C0.0606953 16.8646 -0.0589117 23.7021 0.0407608 30.5397C0.160368 35.4535 4.33665 39.7494 9.04119 39.8391C12.6394 39.859 16.2475 39.8491 19.8457 39.8491C22.786 39.8491 25.7264 39.8491 28.6667 39.8491C31.7964 39.9288 34.9062 38.2244 36.6305 35.4934C37.8067 33.7192 38.2851 31.5463 38.2751 29.4134C38.2751 22.9546 38.2951 16.4858 38.2552 10.037C38.2552 7.61498 37.4678 5.16304 35.883 3.35896C34.1587 1.28578 31.5672 0.0299018 28.9259 0C25.7862 0 22.6465 0 19.5068 0C16.3671 0 13.2274 0 10.0877 0C10.0479 0 9.99804 0 9.95817 0C9.27043 0 8.59266 0.0697707 7.91489 0.209312" fill="white"/>
</mask>
<g mask="url(#mask35_12_999)">
<path d="M38.2851 -0.0100098H-0.128679V39.9288H38.2851V-0.0100098Z" fill="#3B7DE6"/>
</g>
<path fill-rule="evenodd" clip-rule="evenodd" d="M14.6528 28.6558C15.201 27.8485 16.2774 27.6391 17.0549 28.2073L22.1681 31.935C22.9455 32.5032 23.1349 33.6195 22.5967 34.4268C22.0584 35.2342 20.972 35.4435 20.2045 34.8754L15.0913 31.1476C14.3139 30.5795 14.1245 29.4631 14.6627 28.6558" fill="white"/>
<path fill-rule="evenodd" clip-rule="evenodd" d="M22.487 20.1438C23.9422 18.9278 24.7795 17.1038 24.7795 15.1602C24.7795 11.6218 22.0186 8.75122 18.6197 8.75122C15.2209 8.75122 12.46 11.6218 12.46 15.1602C12.46 17.1237 13.3171 18.9577 14.7923 20.1837C17.304 22.2469 20.0351 23.9911 22.6465 25.9049C23.5236 26.5428 23.7429 27.8086 23.1249 28.7156C22.5069 29.6326 21.2909 29.8619 20.4138 29.214C17.6828 27.2205 14.7524 25.4663 12.1709 23.2536C9.84854 21.2502 8.50296 18.2998 8.50296 15.1502C8.50296 9.34926 13.0281 4.64471 18.6098 4.64471C24.1914 4.64471 28.7165 9.34926 28.7165 15.1502C28.7165 18.5191 27.1816 21.6588 24.5702 23.6423C22.5667 25.1673 20.4238 21.8582 22.477 20.1338" fill="white"/>
<path d="M22.477 15.1801C22.477 17.1237 20.962 18.6985 19.0981 18.6985C17.2343 18.6985 15.7192 17.1237 15.7192 15.1801C15.7192 13.2364 17.2343 11.6616 19.0981 11.6616C20.962 11.6616 22.477 13.2364 22.477 15.1801Z" fill="white"/>
</svg>
